# Blender v2.79 (sub 0) OBJ File: ''
# www.blender.org
mtllib spaceship.mtl
o Plane
v 1.000000 -1.000000 0.000000
v 0.333333 -0.833333 0.166667
v 0.000000 -0.950000 0.450000
v -1.000000 -1.000000 0.000000
v 0.000000 -0.750000 -0.250000
v 0.000000 1.000000 0.000000
v -0.333333 -0.833333 0.166667
v 0.000000 -0.166667 0.166667
vn 0.2722 0.1361 -0.9526
vn 0.1025 -0.9565 -0.2733
vn -0.2425 -0.9701 0.0000
vn 0.2722 0.1361 0.9526
vn 0.5625 0.2812 0.7775
vn -0.2722 0.1361 -0.9526
vn -0.1025 -0.9565 -0.2733
vn 0.2425 -0.9701 0.0000
vn -0.2722 0.1361 0.9526
vn -0.5625 0.2812 0.7775
usemtl Material
s off
f 6//1 1//1 5//1
f 3//2 5//2 2//2
f 1//3 2//3 5//3
f 6//4 8//4 2//4 1//4
f 8//5 3//5 2//5
f 6//6 5//6 4//6
f 3//7 7//7 5//7
f 4//8 5//8 7//8
f 6//9 4//9 7//9 8//9
f 8//10 7//10 3//10
