# Blender v2.79 (sub 0) OBJ File: ''
# www.blender.org
mtllib mesh.mtl
o Plane
v -2.000000 -2.000000 0.000000
v 2.000000 -2.000000 0.000000
v -2.000000 2.000000 0.000000
v 2.000000 2.000000 0.000000
v -0.666667 -2.000000 -0.341680
v 0.666667 -2.000000 -0.341680
v 0.666667 2.000000 -0.341680
v -0.666667 2.000000 -0.341680
v -2.000000 0.666667 0.424658
v -2.000000 -0.666667 0.424658
v 2.000000 -0.666667 0.424658
v 2.000000 0.666667 0.424658
v -0.666667 -0.666667 0.082978
v -0.666667 0.666667 0.082978
v 0.666667 -0.666667 0.082978
v 0.666667 0.666667 0.082978
v -1.333333 2.000000 -0.230651
v -1.333333 -2.000000 -0.230651
v -1.333333 -0.666667 0.194007
v -1.333333 0.666667 0.194007
v 0.000000 -2.000000 -0.174173
v 0.000000 2.000000 -0.174173
v 0.000000 -0.666667 0.250485
v 0.000000 0.666667 0.250485
v 1.333333 -2.000000 -0.301832
v 1.333333 2.000000 -0.301832
v 1.333333 -0.666667 0.122826
v 1.333333 0.666667 0.122826
v -2.000000 -1.333333 0.414889
v 2.000000 -1.333333 0.414889
v -0.666667 -1.333333 0.073209
v 0.666667 -1.333333 0.073209
v -1.333333 -1.333333 0.184238
v 0.000000 -1.333333 0.240715
v 1.333333 -1.333333 0.113057
v -2.000000 0.000000 0.307776
v 2.000000 0.000000 0.307776
v -0.666667 0.000000 -0.033904
v 0.666667 0.000000 -0.033904
v -1.333333 0.000000 0.077125
v 0.000000 0.000000 0.133602
v 1.333333 0.000000 0.005944
v 2.000000 1.333333 0.334025
v -0.666667 1.333333 -0.007654
v 0.666667 1.333333 -0.007654
v -2.000000 1.333333 0.334025
v -1.333333 1.333333 0.103375
v 0.000000 1.333333 0.159852
v 1.333333 1.333333 0.032194
vt 0.833333 0.833333
vt 1.000000 0.833333
vt 1.000000 1.000000
vt 0.833333 1.000000
vt 0.166667 0.833333
vt 0.333333 0.833333
vt 0.333333 1.000000
vt 0.166667 1.000000
vt 0.500000 0.833333
vt 0.666667 0.833333
vt 0.666667 1.000000
vt 0.500000 1.000000
vt 0.500000 0.166667
vt 0.666667 0.166667
vt 0.666667 0.333333
vt 0.500000 0.333333
vt 0.500000 0.500000
vt 0.666667 0.500000
vt 0.666667 0.666667
vt 0.500000 0.666667
vt 0.166667 0.166667
vt 0.333333 0.166667
vt 0.333333 0.333333
vt 0.166667 0.333333
vt 0.166667 0.500000
vt 0.333333 0.500000
vt 0.333333 0.666667
vt 0.166667 0.666667
vt 0.833333 0.166667
vt 1.000000 0.166667
vt 1.000000 0.333333
vt 0.833333 0.333333
vt 0.833333 0.500000
vt 1.000000 0.500000
vt 1.000000 0.666667
vt 0.833333 0.666667
vt 0.000000 0.500000
vt 0.000000 0.666667
vt 0.000000 0.166667
vt 0.000000 0.333333
vt 0.000000 0.833333
vt 0.000000 1.000000
vt 0.666667 0.000000
vt 0.833333 0.000000
vt 0.333333 0.000000
vt 0.500000 0.000000
vt 0.000000 0.000000
vt 0.166667 0.000000
vt 1.000000 0.000000
vn -0.2340 0.2924 0.9272
vn -0.3982 0.2603 0.8795
vn -0.3752 0.4152 0.8287
vn -0.2056 0.4384 0.8749
vn 0.2378 0.2895 0.9272
vn -0.0396 0.3013 0.9527
vn -0.0343 0.4477 0.8935
vn 0.2167 0.4373 0.8728
vn 0.0000 0.2884 0.9575
vn 0.0902 0.2987 0.9500
vn 0.0799 0.4465 0.8912
vn 0.0000 0.4480 0.8940
vn 0.0000 -0.2712 0.9625
vn 0.0914 -0.2879 0.9532
vn 0.0936 0.0797 0.9924
vn 0.0000 0.0782 0.9969
vn 0.0000 0.0000 1.0000
vn 0.0916 0.0000 0.9958
vn 0.0945 -0.0194 0.9953
vn 0.0000 -0.0188 0.9998
vn 0.2398 -0.2782 0.9301
vn -0.0402 -0.2915 0.9557
vn -0.0409 0.0803 0.9959
vn 0.2470 0.0773 0.9659
vn 0.2443 0.0000 0.9697
vn -0.0397 0.0000 0.9992
vn -0.0414 -0.0196 0.9989
vn 0.2484 -0.0188 0.9684
vn -0.2372 -0.2827 0.9294
vn -0.4001 -0.2423 0.8838
vn -0.4114 0.0706 0.9087
vn -0.2419 0.0778 0.9672
vn -0.2355 0.0000 0.9719
vn -0.4124 0.0000 0.9110
vn -0.4124 -0.0168 0.9108
vn -0.2442 -0.0190 0.9695
vn 0.3269 0.0000 0.9450
vn 0.3269 -0.0176 0.9449
vn 0.3162 -0.2540 0.9140
vn 0.3261 0.0736 0.9425
vn 0.3146 0.2716 0.9095
vn 0.2955 0.4279 0.8541
vn 0.0754 -0.5268 0.8466
vn -0.1940 -0.5183 0.8329
vn -0.0323 -0.5281 0.8486
vn 0.0000 -0.5284 0.8490
vn 0.2818 -0.5069 0.8146
vn 0.2054 -0.5171 0.8309
vn -0.3588 -0.4932 0.7925
usemtl None
s 1
f 49/1/1 43/2/2 4/3/3 26/4/4
f 47/5/5 44/6/6 8/7/7 17/8/8
f 48/9/9 45/10/10 7/11/11 22/12/12
f 34/13/13 32/14/14 15/15/15 23/16/16
f 41/17/17 39/18/18 16/19/19 24/20/20
f 33/21/21 31/22/22 13/23/23 19/24/24
f 40/25/25 38/26/26 14/27/27 20/28/28
f 35/29/29 30/30/30 11/31/31 27/32/32
f 42/33/33 37/34/34 12/35/35 28/36/36
f 36/37/37 40/25/25 20/28/28 9/38/38
f 29/39/39 33/21/21 19/24/24 10/40/40
f 46/41/41 47/5/5 17/8/8 3/42/42
f 38/26/26 41/17/17 24/20/20 14/27/27
f 31/22/22 34/13/13 23/16/16 13/23/23
f 44/6/6 48/9/9 22/12/12 8/7/7
f 39/18/18 42/33/33 28/36/36 16/19/19
f 32/14/14 35/29/29 27/32/32 15/15/15
f 45/10/10 49/1/1 26/4/4 7/11/11
f 6/43/43 25/44/44 35/29/29 32/14/14
f 5/45/45 21/46/46 34/13/13 31/22/22
f 1/47/47 18/48/48 33/21/21 29/39/39
f 25/44/44 2/49/49 30/30/30 35/29/29
f 18/48/48 5/45/45 31/22/22 33/21/21
f 21/46/46 6/43/43 32/14/14 34/13/13
f 15/15/15 27/32/32 42/33/33 39/18/18
f 13/23/23 23/16/16 41/17/17 38/26/26
f 10/40/40 19/24/24 40/25/25 36/37/37
f 27/32/32 11/31/31 37/34/34 42/33/33
f 19/24/24 13/23/23 38/26/26 40/25/25
f 23/16/16 15/15/15 39/18/18 41/17/17
f 16/19/19 28/36/36 49/1/1 45/10/10
f 14/27/27 24/20/20 48/9/9 44/6/6
f 9/38/38 20/28/28 47/5/5 46/41/41
f 24/20/20 16/19/19 45/10/10 48/9/9
f 20/28/28 14/27/27 44/6/6 47/5/5
f 28/36/36 12/35/35 43/2/2 49/1/1
