# Blender v2.79 (sub 0) OBJ File: ''
# www.blender.org
mtllib small flat.mtl
o Plane_Plane.001
v -2.000000 -2.000000 -1.000000
v 2.000000 -2.000000 0.000000
v -2.000000 2.000000 0.000000
v 2.000000 2.000000 1.000000
v -0.666667 -2.000000 -0.250000
v 0.666667 -2.000000 -0.750000
v 0.666667 2.000000 0.250000
v -0.666667 2.000000 0.750000
v -2.000000 0.666667 -0.750000
v -2.000000 -0.666667 -0.250000
v 2.000000 -0.666667 0.750000
v 2.000000 0.666667 0.250000
v -0.666667 -0.666667 0.500000
v -0.666667 0.666667 0.000000
v 0.666667 -0.666667 0.000000
v 0.666667 0.666667 -0.500000
vt 0.666667 0.666667
vt 1.000000 0.666667
vt 1.000000 1.000000
vt 0.666667 1.000000
vt 0.000000 0.666667
vt 0.333333 0.666667
vt 0.333333 1.000000
vt 0.000000 1.000000
vt 0.333333 0.000000
vt 0.666667 0.000000
vt 0.666667 0.333333
vt 0.333333 0.333333
vt 0.000000 0.000000
vt 0.000000 0.333333
vt 1.000000 0.000000
vt 1.000000 0.333333
vn -0.4402 -0.4402 0.7826
vn 0.3107 -0.4660 0.8284
vn 0.3313 0.3313 0.8835
vn -0.4660 0.3107 0.8284
usemtl None
s off
f 16/1/1 12/2/1 4/3/1 7/4/1
f 9/5/1 14/6/1 8/7/1 3/8/1
f 14/6/2 16/1/2 7/4/2 8/7/2
f 5/9/2 6/10/2 15/11/2 13/12/2
f 13/12/3 15/11/3 16/1/3 14/6/3
f 1/13/1 5/9/1 13/12/1 10/14/1
f 10/14/4 13/12/4 14/6/4 9/5/4
f 6/10/1 2/15/1 11/16/1 15/11/1
f 15/11/4 11/16/4 12/2/4 16/1/4
